HIERARCHY
ROOT Hips
{
	OFFSET -14.64140 90.27770 -84.91600
	CHANNELS 6 Xposition Yposition Zposition Zrotation Xrotation Yrotation
	JOINT Spine
	{
		OFFSET 0.00000 13.20850 -1.60436
		CHANNELS 3 Zrotation Xrotation Yrotation
		JOINT Spine1
		{
			OFFSET 0.00000 8.61716 0.00000
			CHANNELS 3 Zrotation Xrotation Yrotation
			JOINT Spine2
			{
				OFFSET 0.00000 8.61717 0.00000
				CHANNELS 3 Zrotation Xrotation Yrotation
				JOINT Spine3
				{
					OFFSET 0.00000 8.61717 0.00000
					CHANNELS 3 Zrotation Xrotation Yrotation
					JOINT Neck
					{
						OFFSET 0.00000 11.07920 1.10792
						CHANNELS 3 Zrotation Xrotation Yrotation
						JOINT Neck1
						{
							OFFSET 0.00000 7.08032 0.00000
							CHANNELS 3 Zrotation Xrotation Yrotation
							JOINT Head
							{
								OFFSET 0.00000 7.08031 0.00000
								CHANNELS 3 Zrotation Xrotation Yrotation
								End site
								{
									OFFSET 0.00000 0.00000 0.00000
								}
							}
						}
					}
					JOINT RightShoulder
					{
						OFFSET -0.01000 7.91373 5.19711
						CHANNELS 3 Zrotation Xrotation Yrotation
						JOINT RightArm
						{
							OFFSET -18.41580 0.00000 0.00000
							CHANNELS 3 Zrotation Xrotation Yrotation
							JOINT RightForeArm
							{
								OFFSET -29.11090 0.00000 0.00000
								CHANNELS 3 Zrotation Xrotation Yrotation
								JOINT RightHand
								{
									OFFSET -24.65040 0.00000 0.00000
									CHANNELS 3 Zrotation Xrotation Yrotation
									JOINT RightHandThumb1
									{
										OFFSET -5.35114 -0.85590 3.97906
										CHANNELS 3 Zrotation Xrotation Yrotation
										JOINT RightHandThumb2
										{
											OFFSET -4.52789 0.00000 0.00000
											CHANNELS 3 Zrotation Xrotation Yrotation
											JOINT RightHandThumb3
											{
												OFFSET -2.46976 0.00000 0.00000
												CHANNELS 3 Zrotation Xrotation Yrotation
												End site
												{
													OFFSET 0.00000 0.00000 0.00000
												}
											}
										}
									}
									JOINT RightHandIndex1
									{
										OFFSET -14.26970 0.00000 2.88139
										CHANNELS 3 Zrotation Xrotation Yrotation
										JOINT RightHandIndex2
										{
											OFFSET -5.48836 0.00000 0.00000
											CHANNELS 3 Zrotation Xrotation Yrotation
											JOINT RightHandIndex3
											{
												OFFSET -3.01859 0.00000 0.00000
												CHANNELS 3 Zrotation Xrotation Yrotation
												End site
												{
													OFFSET 0.00000 0.00000 0.00000
												}
											}
										}
									}
									JOINT RightHandMiddle1
									{
										OFFSET -14.26970 0.00000 -0.09147
										CHANNELS 3 Zrotation Xrotation Yrotation
										JOINT RightHandMiddle2
										{
											OFFSET -6.17441 0.00000 0.00000
											CHANNELS 3 Zrotation Xrotation Yrotation
											JOINT RightHandMiddle3
											{
												OFFSET -3.56743 0.00000 0.00000
												CHANNELS 3 Zrotation Xrotation Yrotation
												End site
												{
													OFFSET 0.00000 0.00000 0.00000
												}
											}
										}
									}
									JOINT RightHandRing1
									{
										OFFSET -12.69180 0.00000 -3.06433
										CHANNELS 3 Zrotation Xrotation Yrotation
										JOINT RightHandRing2
										{
											OFFSET -5.62556 0.00000 0.00000
											CHANNELS 3 Zrotation Xrotation Yrotation
											JOINT RightHandRing3
											{
												OFFSET -3.56744 0.00000 0.00000
												CHANNELS 3 Zrotation Xrotation Yrotation
												End site
												{
													OFFSET 0.00000 0.00000 0.00000
												}
											}
										}
									}
									JOINT RightHandPinky1
									{
										OFFSET -11.11390 0.00000 -6.03719
										CHANNELS 3 Zrotation Xrotation Yrotation
										JOINT RightHandPinky2
										{
											OFFSET -4.52789 0.00000 0.00000
											CHANNELS 3 Zrotation Xrotation Yrotation
											JOINT RightHandPinky3
											{
												OFFSET -2.46976 0.00000 0.00000
												CHANNELS 3 Zrotation Xrotation Yrotation
												End site
												{
													OFFSET 0.00000 0.00000 0.00000
												}
											}
										}
									}
								}
							}
						}
					}
					JOINT LeftShoulder
					{
						OFFSET 0.01000 7.91373 5.19711
						CHANNELS 3 Zrotation Xrotation Yrotation
						JOINT LeftArm
						{
							OFFSET 18.41580 0.00000 0.00000
							CHANNELS 3 Zrotation Xrotation Yrotation
							JOINT LeftForeArm
							{
								OFFSET 29.11090 0.00000 0.00000
								CHANNELS 3 Zrotation Xrotation Yrotation
								JOINT LeftHand
								{
									OFFSET 24.65040 0.00000 0.00000
									CHANNELS 3 Zrotation Xrotation Yrotation
									JOINT LeftHandThumb1
									{
										OFFSET 5.35114 -0.85590 3.97906
										CHANNELS 3 Zrotation Xrotation Yrotation
										JOINT LeftHandThumb2
										{
											OFFSET 4.52789 0.00000 0.00000
											CHANNELS 3 Zrotation Xrotation Yrotation
											JOINT LeftHandThumb3
											{
												OFFSET 2.46977 0.00000 0.00000
												CHANNELS 3 Zrotation Xrotation Yrotation
												End site
												{
													OFFSET 0.00000 0.00000 0.00000
												}
											}
										}
									}
									JOINT LeftHandIndex1
									{
										OFFSET 14.26970 0.00000 2.88139
										CHANNELS 3 Zrotation Xrotation Yrotation
										JOINT LeftHandIndex2
										{
											OFFSET 5.48836 0.00000 0.00000
											CHANNELS 3 Zrotation Xrotation Yrotation
											JOINT LeftHandIndex3
											{
												OFFSET 3.01859 0.00000 0.00000
												CHANNELS 3 Zrotation Xrotation Yrotation
												End site
												{
													OFFSET 0.00000 0.00000 0.00000
												}
											}
										}
									}
									JOINT LeftHandMiddle1
									{
										OFFSET 14.26970 0.00000 -0.09147
										CHANNELS 3 Zrotation Xrotation Yrotation
										JOINT LeftHandMiddle2
										{
											OFFSET 6.17440 0.00000 0.00000
											CHANNELS 3 Zrotation Xrotation Yrotation
											JOINT LeftHandMiddle3
											{
												OFFSET 3.56744 0.00000 0.00000
												CHANNELS 3 Zrotation Xrotation Yrotation
												End site
												{
													OFFSET 0.00000 0.00000 0.00000
												}
											}
										}
									}
									JOINT LeftHandRing1
									{
										OFFSET 12.69180 0.00000 -3.06433
										CHANNELS 3 Zrotation Xrotation Yrotation
										JOINT LeftHandRing2
										{
											OFFSET 5.62556 0.00000 0.00000
											CHANNELS 3 Zrotation Xrotation Yrotation
											JOINT LeftHandRing3
											{
												OFFSET 3.56744 0.00000 0.00000
												CHANNELS 3 Zrotation Xrotation Yrotation
												End site
												{
													OFFSET 0.00000 0.00000 0.00000
												}
											}
										}
									}
									JOINT LeftHandPinky1
									{
										OFFSET 11.11390 0.00000 -6.03719
										CHANNELS 3 Zrotation Xrotation Yrotation
										JOINT LeftHandPinky2
										{
											OFFSET 4.52789 0.00000 0.00000
											CHANNELS 3 Zrotation Xrotation Yrotation
											JOINT LeftHandPinky3
											{
												OFFSET 2.46976 0.00000 0.00000
												CHANNELS 3 Zrotation Xrotation Yrotation
												End site
												{
													OFFSET 0.00000 0.00000 0.00000
												}
											}
										}
									}
								}
							}
						}
					}
					JOINT pCube4
					{
						OFFSET 0.00000 10.91090 1.10792
						CHANNELS 3 Zrotation Xrotation Yrotation
						End site
						{
							OFFSET 0.00000 0.00000 0.00000
						}
					}
				}
			}
		}
	}
	JOINT RightUpLeg
	{
		OFFSET -9.98441 0.00000 0.00000
		CHANNELS 3 Zrotation Xrotation Yrotation
		JOINT RightLeg
		{
			OFFSET 0.00000 -42.11790 0.00000
			CHANNELS 3 Zrotation Xrotation Yrotation
			JOINT RightFoot
			{
				OFFSET 0.00000 -45.00020 -0.00001
				CHANNELS 3 Zrotation Xrotation Yrotation
				JOINT RightForeFoot
				{
					OFFSET 0.00000 -3.74820 0.00000
					CHANNELS 3 Zrotation Xrotation Yrotation
					JOINT RightToeBase
					{
						OFFSET 0.00000 0.06325 14.43120
						CHANNELS 3 Zrotation Xrotation Yrotation
						End site
						{
							OFFSET 0.00000 0.00000 0.00000
						}
					}
				}
			}
		}
	}
	JOINT LeftUpLeg
	{
		OFFSET 9.98441 0.00000 0.00000
		CHANNELS 3 Zrotation Xrotation Yrotation
		JOINT LeftLeg
		{
			OFFSET 0.00000 -42.11800 0.00000
			CHANNELS 3 Zrotation Xrotation Yrotation
			JOINT LeftFoot
			{
				OFFSET 0.00000 -45.00070 0.00000
				CHANNELS 3 Zrotation Xrotation Yrotation
				JOINT LeftForeFoot
				{
					OFFSET 0.00000 -3.74824 0.00000
					CHANNELS 3 Zrotation Xrotation Yrotation
					JOINT LeftToeBase
					{
						OFFSET 0.00000 0.06325 14.43110
						CHANNELS 3 Zrotation Xrotation Yrotation
						End site
						{
							OFFSET 0.00000 0.00000 0.00000
						}
					}
				}
			}
		}
	}
}
MOTION
Frames: 4
Frame Time: 0.050000
-0.03890015259799042 0.028027577606386772 -0.01784248258317955 0.024104776240193772 0.04662366674749439 -0.004410654685829569 -3.0697548448701983 6.523347800436973 -0.7313752938048116 -0.6223803685422978 3.240203735432616 0.38880199850156116 -0.8949791882073355 -0.08656107188117351 -0.581141296933373 -0.37274928483166975 0.18872068600040526 -0.8511734942433612 -0.06133568520558396 7.380701758124507 -0.6347121319958235 0.008425294405992868 -1.9900993155944051 -4.595032953088721 0.28892229533419744 -16.95308068364993 -0.3467345081717936 4.211171086378164 -0.2001678785031851 -11.27853724779578 70.9911049011529 9.067518197206493 5.7799981150971576 18.89882770895134 13.798759942985672 67.08071284229925 25.96747099605625 0.11085058675781034 -8.746973145395256 4.524638734133931 -0.11190292219204173 -1.6236966891606872 -0.030446422545313708 -0.014995957973992405 -56.21279598593499 0.02555689752055077 -0.019601305015598258 -56.21019563969392 -38.80786404979168 0.0204514779531892 -0.032722729006704775 -0.04172982844846577 0.020865103185040007 -0.002938220116498482 -0.04055855229841661 -0.027096577334911134 -0.04006895356990972 -36.725384188200515 -0.01259443370801834 0.03512266723618548 0.016314875594689218 0.026477776632565713 0.004843606965585698 -0.036248270440805294 -0.0046833032285137225 -0.02333827218418705 -19.79946230809984 -0.004944584047184038 0.003097124222574834 0.004329712445441594 0.042021707465771906 -0.01258375725144997 0.02643599264265994 0.041443661715185605 0.034309414778442585 24.08441967039727 0.0035126198642857656 0.03761296034910104 28.90187960637748 0.04771113098535488 -0.031222206033419853 28.84334152098947 0.042523237905584675 -0.004115836445888447 -3.2206094811144084 0.028454905429275767 10.070882425709216 -68.86848983342307 18.608893448722444 -7.7951868560039905 -9.421778471717824 9.687514054879863 -49.05736086429668 -17.84885929303743 5.718764742366276 -1.522094697301618 -0.4533762498545329 0.11506426279540612 -8.146214065419997 -0.003564964137396069 -0.04729880730677501 44.56273500468222 -0.014868662486369314 0.0015594001859610676 44.54806009441863 12.46236713391891 -0.03418370298984229 0.0061753876234888596 0.016093350513826772 0.009948645645977463 -0.04014643908467925 -0.03186115883813664 0.037146070345376175 0.009144723465173999 11.087654838551881 0.03328436240102062 -0.03672724381173398 0.046023475122827257 -0.03438557232482656 -0.04711549770057172 -0.00625655900232065 0.033289762204465764 -0.0028147932069081377 4.791398293605959 -0.048219810664185535 -0.010538515589737216 0.003772911398829832 0.007460237834116778 0.023306130319447352 0.03429683131554533 -0.03535604537079017 -0.01817901127853784 -5.61846808822563 0.032121960771009574 -0.038504876527486596 -6.7497552449260025 0.026965221337109758 -0.018652910955165667 -6.763060806991159 0.0031100141210679173 0.024363990666607712 -0.015847922526864948 0.02151629153255415 -0.03630527663989973 8.007544936453607 3.541265632455995 -19.23925865189655 -0.04073015654392816 10.354245136397902 0.005230100864686678 -5.574084602702029 -15.688976457510513 3.1851419299340775 0.023934112307717286 0.009844869991399918 -0.029351999617220795 -0.03326610231309213 4.716171031248295 -0.026507630109228564 12.488150341630103 -8.256293122851414 6.880334079470235 0.013623420787714252 46.41270119556155 -0.04633564830843978 -4.31056614435736 -14.771029702979101 -3.8192273131939394 -0.023350408411922402 -0.003129228577988162 -0.03248175356977016 0.015156835448379521 -10.756107346007761 -0.047767784893285425 
-0.026906134282223656 0.019139063780500985 -0.025667118353865384 0.023091739843754296 0.025503232336393417 0.03958363759517916 -2.253953858677357 5.651635492808652 -0.8966839965365161 -0.6310789782879745 3.2798722157122246 0.3350823285756756 -0.8561532041853648 -0.3722090960000636 -0.4274757278404351 -0.3190120132136448 0.2342315434782059 -0.7884678564323697 -0.07379384937373716 8.366876851282521 -0.712489280834186 0.035491591944688705 -1.93405765842608 -4.563858696307479 0.40620344022209465 -17.34149336870298 -0.37091121460606086 2.178897519483709 0.40235768359483615 -11.774624557090686 72.65133730887716 10.210666447270341 8.346909162540264 29.8430863337031 11.363366184585812 75.9505976037397 23.346986718789665 0.037643773330184774 -9.147983660783773 4.532113192611408 -0.08315859314906035 -1.6176225405385742 -0.0008031031941800272 0.016802720177791327 -56.23431344804168 0.03616564531693871 -0.03560218470197315 -56.27048113730889 -38.81400496840951 0.008617488523491612 -0.04191465333886614 0.04131380759889312 0.003798164936581772 -0.023846819341483583 -0.03146815110471207 0.04377054827512066 0.012544808160673113 -36.69424775394333 -0.039906853453017976 -0.008160361967199738 -0.03506760466748425 0.029160465577443333 -0.013439979968666282 -0.01993784522173804 -0.005436330067645632 0.027683062680936996 -19.801277766096877 0.012510791763424942 -0.0287834741179423 -0.025760235906811 -0.00124874500154598 -0.01956212292975783 0.019794512349256565 -0.024136902842512242 0.006756730964868618 24.070964075360045 0.049162187950767024 0.009881186114725517 28.857726966284417 0.003974750248883835 0.022666335271561675 28.887027585942345 0.013756274726021358 -0.022268080934444507 -1.1665113192451368 0.37898499492262117 10.439594929969548 -70.14400445246102 19.74726721687134 -8.99185129969597 -15.055754295787557 9.36703833227445 -52.88847968537412 -16.36643771978311 4.497808160592565 -0.6402212669522149 -0.4812009030406996 0.1168357672460627 -8.101188956741277 0.005877273226579354 -0.0190500781974663 44.53389906191653 0.034637539417303666 0.03130140375697973 44.58957892472511 12.442949153912542 0.022046070201550652 -0.014168435054704482 0.007330956690539569 0.012357601788101013 0.02680437771394362 0.028872258813823087 0.04399661994593893 0.006943923145060361 11.090294091241857 -0.01295991867026836 0.04461366964970476 -0.01802475153934087 0.035896887567517875 0.018257182958108988 0.042012465529296765 -0.005149067712217047 0.0327420188794589 4.798287445525342 0.002663044011112156 -0.0033988330904920084 -0.03482307671253636 -0.001048098227651892 0.035871232751207655 -0.02286957797498542 -0.006766757712140426 -0.0023815547859629637 -5.565171741083497 0.026508881878021976 0.04237710156939557 -6.719161327754997 0.0324580863990495 0.00766309941095373 -6.702073600389673 0.04020394813868284 0.0021630133440840218 0.035017096598943385 -0.02720975496168117 0.0018358741335981503 8.042256547317812 3.488864184842456 -19.215431990073824 -0.0399540364911959 10.376859169236761 0.06393593136624585 -5.645753731381805 -15.640915119204037 3.1705299001509126 -0.018858434006234243 -0.014141930556929864 0.004554148972393766 0.011153671929726373 4.720713471080037 -0.02751402741995811 12.459153565434695 -8.238196880729127 6.843999955009947 0.02321552066777322 46.402795374399176 0.016980054932790204 -4.33804585469431 -14.78247415485776 -3.8760769656845944 0.010877084424534724 0.025366553312654232 0.01956412065109058 -0.02177652852968735 -10.751119968857582 -0.00315944071498276 
-0.042270676800177355 0.04332850263789052 -0.000949415170444634 -0.026609486299907222 0.03231953075997182 -0.04056952864701318 -1.288036536880918 4.852081012680119 -1.0094668726299028 -0.7298394065078223 3.371532778926295 0.39171876308522513 -0.8170020756828523 -0.5934637982347989 -0.2153012248254827 -0.2503663254072626 0.12379064479569457 -0.716239597970023 -0.028956164187416294 9.137052136445565 -0.8442467235335047 0.05124167693959425 -1.7563331729568246 -4.441340690676589 0.46242360314979486 -17.385589194447505 -0.36133923299415394 0.0833588292705669 0.9820126199533139 -12.217302602202242 74.42616864715265 11.026686884730386 10.651043438224368 38.175646811527656 8.20920887403947 82.61105706550968 20.99626005149905 -0.0898287884036361 -9.152880400173503 4.481954213431409 -0.10108013805606345 -1.6260661674257013 0.00856084570018667 -0.008275463769841453 -56.20034978023619 0.04756434883969376 -0.026580350500487283 -56.25366961600244 -38.80051143641654 -0.013454753812213427 -0.02622827205089285 0.04211073348738719 -0.014699172626683526 -0.02079882864981633 -0.0013523401233259422 -0.0362503430064873 -0.03880954704093115 -36.66395236273009 0.0239604876250719 0.04758901476359271 -0.009526129890006362 0.0045206130905188985 -0.006008812593416523 -0.007171323688924798 0.003408111725008761 0.04593272588820819 -19.734118075911557 0.04532702504836167 0.0018639820732123862 0.03687406895356433 0.0028781701121441228 0.012853531465644188 0.019456142390872625 -0.020138016949922403 0.04359922563875356 24.039118849653555 0.02589045519336443 -0.002600205388632168 28.871086481867653 0.0491306946774226 0.0034139660505164604 28.853236560775386 -0.03247030747130949 -0.012262144443471214 0.842159736453676 0.733595234520108 10.811053022596056 -71.37854599517243 20.727724691847026 -10.101393908473101 -19.72113212434414 8.31228508083504 -56.10001268404328 -15.141507553022251 3.049180857561246 0.33609523210638864 -0.47757416326391483 0.044536802085033175 -8.118013838410485 -0.028387842041901853 0.01261424594365147 44.59398461547965 -0.013466485568820014 -0.016005805279798946 44.58067155429912 12.477488318698365 0.015212342214030295 -0.009657366423059654 0.02677748686855974 -0.01896428151676527 -0.020785200071538435 -0.04234979610997617 0.0062729108937325485 0.04322416050601314 11.124759793771961 0.036971613907471404 -0.0025455440317784833 0.033251078561157305 -0.023290825716237615 0.020012067356749652 -0.028159336831684048 0.03615411422603642 -0.04440132934905627 4.792526001507232 0.035170366935081125 0.01408150730680309 0.020774414159759315 -0.02044249595664299 0.00607856854301001 0.00655466292141999 0.022489283859405212 -0.011641324300625495 -5.572848880730143 -0.03294182622030204 0.019307930705163748 -6.711259727886177 0.03289205422565216 -0.039335147686978676 -6.71570503754468 0.021311610855254043 0.005575622982407633 0.004761531245956796 0.006923911165542237 -0.02032723761071938 8.068383583177951 3.477942936753568 -19.22430801845993 -0.006506384155055661 10.402026763396707 -0.0327032662550399 -5.576745924924034 -15.660949807112992 3.2090298784107563 0.033855021241358266 0.029332139909674246 0.04011068588599783 -0.04129958139945103 4.728199835017486 0.0006332914361231475 12.485128426592999 -8.260381880500882 6.898452151133135 -0.048390917838283184 46.35268127909225 0.00858850511657579 -4.360164084584412 -14.744650651300402 -3.8423129558643336 -0.017753207967032284 0.0447230931854242 -0.01910147027255469 0.009617530287414244 -10.75231101523863 -0.003909273408131244 
0.013343034811520493 -0.015121657720307055 -0.021589628721620412 0.0301662807992108 -0.026370362180617987 0.013177626706694302 -0.4729480046780602 4.275546258381238 -1.1488902904696683 -0.7579253522245876 3.367210919250351 0.4022089025022653 -0.7787736875882234 -0.7856199110835539 -0.0863317194984102 -0.237670860140975 0.033907973197392 -0.5995286719585565 0.000613138116259653 9.721755298729805 -0.8852379480911793 0.12376359885160185 -1.5357779821147504 -4.379098289132452 0.5691599423807141 -17.288655753992785 -0.35561818160850317 -1.652660500019312 1.414541338817009 -12.70871548096852 75.99878665267538 11.048454791723124 12.101138711874965 42.898067475618795 5.750622099748395 86.01289941552068 19.317363063625375 -0.1804663353001086 -8.769325304090044 4.528861896917356 -0.10606052349324074 -1.5995597960457988 0.03872712596205063 0.022705683868091114 -56.27154989422719 0.0018033306229036249 0.027134619881296396 -56.2706398137491 -38.73950512487603 0.023354607400182626 0.02421637216203833 -0.02578075098391201 -0.03642496263636701 -0.014271095652552338 0.026082771521565688 -0.022454866463347975 -0.014137659117038499 -36.71802805382557 0.04310952566705342 -0.006894617476281198 -0.03284195046097244 0.0425409862821641 0.00473630395333326 0.0020395617248588904 0.0037217772347668807 -0.04847537831784661 -19.8002579460453 -0.04729278435547138 0.00816259962017518 -0.017364299218886083 0.025538590908181384 0.022846860080541823 0.041354209351427 0.011293432715445174 -0.033836687536179334 24.063793847426084 -0.04690825505981774 -0.006841505070817686 28.836768355852303 -0.03184239274396751 -0.03138518072250501 28.83859379205344 -0.04992548355413914 -0.009669657905386797 2.4858298729969173 1.0726953620149404 11.17130996704783 -72.4207635069362 21.11435488134172 -10.67302346575799 -21.536741528308543 6.411800028111062 -57.47395476708911 -14.674006243709536 1.543491620038361 1.1619237107044038 -0.4413842384898063 0.02046220390715621 -8.171125630711465 -0.007648706452522761 -0.020084403993732357 44.526038546392364 -0.021164747494806326 -0.046958947610866185 44.574977954615136 12.447480506374308 -0.01533446166331775 -0.024417251540824407 -0.01592927180867937 0.019709285649163244 0.0436071669519637 -0.03818773043256314 -0.007569270881481987 -0.030792649082910007 11.061445300158999 0.047353282231370517 -0.001310923046058579 -0.006559921888305498 0.009177086929508561 0.02064355510615999 -0.021027197676605353 0.00570216066407666 -0.006826291133006588 4.74402275950255 -0.005312737579928527 0.029784962027648725 0.018193098376679036 -0.04603685509713718 -0.019897286585223883 -0.018409191091019947 -0.03373874266886293 -0.002700998600583244 -5.55903887848438 0.02100267329415907 0.005543328363944027 -6.739231455785583 -0.0155910801001409 0.0061481264556437 -6.70889752438172 -0.011218556748702068 -0.013601871266811463 -0.002289952013203466 -0.018894248519608532 0.046435214633814344 8.02164304360536 3.4699859206155743 -19.188275200845187 0.006652394974019314 10.422714662693094 -0.03411592416230774 -5.661461079362402 -15.647251173050929 3.189017604659959 -0.03522214957229864 -0.0124286106844319 0.023399664618397716 0.009290927456255657 4.710595325484115 0.024296004726603735 12.44356369649562 -8.256253602857683 6.895511596687953 -0.009807830645646224 46.36934832951921 0.025460790077512122 -4.358205522444869 -14.767202901864398 -3.858089920286424 -0.04023862637453243 0.02991706017343774 0.0015519924504051195 0.03366972025728409 -10.730292609356944 0.026682478766587525 
